<?xml version="1.0" encoding="UTF-8"?>
<svg xmlns="http://www.w3.org/2000/svg" xmlns:xlink="http://www.w3.org/1999/xlink" width="168pt" height="32pt" viewBox="0 0 168 32" version="1.1">
<g id="surface1">
<path style=" stroke:none;fill-rule:evenodd;fill:rgb(40%,49.411765%,91.764706%);fill-opacity:1;" d="M 39.875 12.605469 L 32.886719 8.160156 L 32.886719 28.804688 L 41.058594 28.804688 L 41.058594 30.804688 L 1.101562 30.804688 L 1.101562 28.804688 L 4.734375 28.804688 L 4.734375 16.085938 L 1.347656 17.019531 L 0.90625 15.078125 L 20.058594 9.804688 L 22.894531 9.804688 C 22.582031 10.621094 22.375 11.484375 22.277344 12.363281 L 21.839844 16.339844 L 26.527344 13.355469 L 26.527344 28.804688 L 31.070312 28.804688 L 31.070312 8.160156 L 24.082031 12.605469 C 24.285156 10.742188 25.113281 9.027344 26.410156 7.804688 L 22.667969 7.804688 C 24.078125 5.730469 26.359375 4.605469 28.703125 4.832031 L 23.625 1.605469 C 25.597656 0.675781 27.851562 0.824219 29.707031 2.007812 C 30.652344 2.605469 31.414062 3.414062 31.976562 4.351562 C 32.558594 3.386719 33.335938 2.582031 34.246094 2.007812 C 36.105469 0.824219 38.359375 0.675781 40.328125 1.605469 L 35.25 4.832031 C 37.59375 4.605469 39.875 5.730469 41.285156 7.804688 L 37.542969 7.804688 C 38.839844 9.027344 39.671875 10.738281 39.875 12.605469 Z M 22.894531 28.804688 L 22.894531 18.804688 L 17.449219 18.804688 L 17.449219 28.804688 Z M 12.90625 20.804688 C 12.90625 21.910156 12.09375 22.804688 11.089844 22.804688 C 10.085938 22.804688 9.273438 21.910156 9.273438 20.804688 C 9.273438 19.699219 10.085938 18.804688 11.089844 18.804688 C 12.09375 18.804688 12.90625 19.699219 12.90625 20.804688 Z M 12.90625 20.804688 "/>
<path style=" stroke:none;fill-rule:nonzero;fill:rgb(100%,100%,100%);fill-opacity:1;" d="M 55.453125 28 L 58.875 28 L 61.730469 16.910156 L 64.605469 28 L 68.027344 28 L 72.300781 11.199219 L 69.140625 11.199219 L 66.21875 23.65625 L 63.015625 11.199219 L 60.445312 11.199219 L 57.261719 23.65625 L 54.339844 11.199219 L 51.179688 11.199219 Z M 77.800781 28.335938 C 81.003906 28.335938 83.578125 25.574219 83.578125 22 C 83.578125 18.425781 81.003906 15.664062 77.800781 15.664062 C 74.597656 15.664062 72.046875 18.425781 72.046875 22 C 72.046875 25.574219 74.597656 28.335938 77.800781 28.335938 Z M 77.800781 25.3125 C 76.144531 25.3125 74.859375 23.945312 74.859375 22 C 74.859375 20.054688 76.144531 18.6875 77.800781 18.6875 C 79.480469 18.6875 80.765625 20.054688 80.765625 22 C 80.765625 23.945312 79.480469 25.3125 77.800781 25.3125 Z M 88.367188 18.0625 L 88.367188 16 L 85.554688 16 L 85.554688 28 L 88.367188 28 L 88.367188 22.265625 C 88.367188 19.742188 90.21875 19.023438 91.679688 19.214844 L 91.679688 15.761719 C 90.304688 15.761719 88.933594 16.433594 88.367188 18.0625 Z M 103.371094 28 L 98.859375 21.929688 L 103.238281 16 L 99.882812 16 L 96.136719 21.28125 L 96.136719 11.199219 L 93.324219 11.199219 L 93.324219 28 L 96.136719 28 L 96.136719 22.550781 L 100.101562 28 Z M 103.371094 28 "/>
<path style=" stroke:none;fill-rule:nonzero;fill:rgb(40%,49.411765%,91.764706%);fill-opacity:1;" d="M 109.960938 28.335938 C 112.097656 28.335938 113.953125 27.089844 114.886719 25.214844 L 112.449219 23.679688 C 112.011719 24.664062 111.074219 25.265625 109.941406 25.265625 C 108.261719 25.265625 107.019531 23.894531 107.019531 22 C 107.019531 20.078125 108.261719 18.710938 109.941406 18.710938 C 111.050781 18.710938 111.988281 19.335938 112.425781 20.320312 L 114.84375 18.761719 C 113.953125 16.910156 112.097656 15.664062 109.960938 15.664062 C 106.648438 15.664062 104.210938 18.425781 104.210938 22 C 104.210938 25.574219 106.648438 28.335938 109.960938 28.335938 Z M 124.488281 16 L 124.488281 17.414062 C 123.703125 16.335938 122.527344 15.664062 120.933594 15.664062 C 118.035156 15.664062 115.636719 18.425781 115.636719 22 C 115.636719 25.574219 118.035156 28.335938 120.933594 28.335938 C 122.527344 28.335938 123.703125 27.664062 124.488281 26.585938 L 124.488281 28 L 127.296875 28 L 127.296875 16 Z M 121.457031 25.382812 C 119.734375 25.382812 118.449219 24.015625 118.449219 22 C 118.449219 19.984375 119.734375 18.617188 121.457031 18.617188 C 123.203125 18.617188 124.488281 19.984375 124.488281 22 C 124.488281 24.015625 123.203125 25.382812 121.457031 25.382812 Z M 136.082031 18.976562 L 136.082031 16 L 133.617188 16 L 133.617188 12.640625 L 130.804688 13.574219 L 130.804688 16 L 128.910156 16 L 128.910156 18.976562 L 130.804688 18.976562 L 130.804688 23.96875 C 130.804688 27.207031 132.136719 28.480469 136.082031 28 L 136.082031 25.191406 C 134.46875 25.289062 133.617188 25.265625 133.617188 23.96875 L 133.617188 18.976562 Z M 139.457031 14.558594 C 140.417969 14.558594 141.203125 13.695312 141.203125 12.664062 C 141.203125 11.632812 140.417969 10.742188 139.457031 10.742188 C 138.519531 10.742188 137.738281 11.632812 137.738281 12.664062 C 137.738281 13.695312 138.519531 14.558594 139.457031 14.558594 Z M 138.0625 28 L 140.875 28 L 140.875 16 L 138.0625 16 Z M 148.636719 28.335938 C 151.839844 28.335938 154.410156 25.574219 154.410156 22 C 154.410156 18.425781 151.839844 15.664062 148.636719 15.664062 C 145.433594 15.664062 142.882812 18.425781 142.882812 22 C 142.882812 25.574219 145.433594 28.335938 148.636719 28.335938 Z M 148.636719 25.3125 C 146.980469 25.3125 145.691406 23.945312 145.691406 22 C 145.691406 20.054688 146.980469 18.6875 148.636719 18.6875 C 150.3125 18.6875 151.597656 20.054688 151.597656 22 C 151.597656 23.945312 150.3125 25.3125 148.636719 25.3125 Z M 162.449219 15.664062 C 160.988281 15.664062 159.855469 16.265625 159.199219 17.34375 L 159.199219 16 L 156.390625 16 L 156.390625 28 L 159.199219 28 L 159.199219 21.519531 C 159.199219 19.433594 160.226562 18.542969 161.597656 18.542969 C 162.863281 18.542969 163.753906 19.382812 163.753906 21.015625 L 163.753906 28 L 166.566406 28 L 166.566406 20.632812 C 166.566406 17.441406 164.757812 15.664062 162.449219 15.664062 Z M 162.449219 15.664062 "/>
</g>
</svg>
